<?xml version="1.0" encoding="UTF-8"?>
<svg xmlns="http://www.w3.org/2000/svg" xmlns:xlink="http://www.w3.org/1999/xlink" width="50" height="50" viewBox="0 0 50 50">
<path fill="none" stroke-width="2" stroke-linecap="round" stroke-linejoin="round" stroke="rgb(0%, 0%, 0%)" stroke-opacity="1" stroke-miterlimit="4" d="M 5.000625 5.000625 L 18.999375 18.999375 " transform="matrix(2.083333, 0, 0, 2.083333, 0, 0)"/>
<path fill-rule="evenodd" fill="rgb(0%, 0%, 0%)" fill-opacity="1" d="M 16.671875 14.410156 L 13.851562 16.667969 L 8.332031 16.667969 C 6.03125 16.667969 4.167969 18.53125 4.167969 20.832031 L 4.167969 29.167969 C 4.167969 31.46875 6.03125 33.332031 8.332031 33.332031 L 13.851562 33.332031 L 20.3125 38.503906 C 23.042969 40.683594 27.082031 38.742188 27.082031 35.25 L 27.082031 24.820312 L 22.917969 20.65625 L 22.917969 35.25 L 16.457031 30.078125 C 15.714844 29.488281 14.796875 29.167969 13.851562 29.167969 L 8.332031 29.167969 L 8.332031 20.832031 L 13.851562 20.832031 C 14.796875 20.832031 15.714844 20.511719 16.457031 19.921875 L 19.636719 17.375 Z M 22.917969 14.761719 L 22.917969 14.75 L 22.910156 14.757812 L 19.945312 11.792969 L 20.3125 11.496094 C 23.042969 9.316406 27.082031 11.257812 27.082031 14.75 L 27.082031 18.929688 Z M 31.914062 29.652344 C 31.75 29.894531 31.574219 30.128906 31.382812 30.355469 C 30.644531 31.238281 30.757812 32.550781 31.640625 33.292969 C 32.523438 34.03125 33.835938 33.917969 34.574219 33.035156 C 34.6875 32.902344 34.792969 32.769531 34.898438 32.636719 Z M 36.917969 28.765625 L 33.332031 25.175781 C 33.371094 23.378906 32.824219 21.613281 31.777344 20.148438 C 31.105469 19.214844 31.320312 17.914062 32.257812 17.242188 C 33.191406 16.574219 34.492188 16.789062 35.164062 17.722656 C 36.777344 19.980469 37.597656 22.707031 37.492188 25.480469 C 37.449219 26.601562 37.253906 27.707031 36.917969 28.765625 Z M 37.863281 35.601562 C 37.832031 35.636719 37.800781 35.675781 37.765625 35.714844 C 37.027344 36.59375 37.144531 37.910156 38.023438 38.648438 C 38.851562 39.339844 40.054688 39.285156 40.8125 38.550781 Z M 43.234375 35.078125 L 40.132812 31.980469 C 41.121094 29.84375 41.648438 27.503906 41.667969 25.117188 C 41.691406 21.238281 40.367188 17.472656 37.914062 14.464844 C 37.1875 13.574219 37.320312 12.261719 38.214844 11.535156 C 39.105469 10.808594 40.417969 10.941406 41.144531 11.832031 C 44.207031 15.589844 45.867188 20.296875 45.832031 25.144531 C 45.808594 28.644531 44.90625 32.054688 43.234375 35.078125 Z M 43.234375 35.078125 "/>
</svg>
