<?xml version="1.0" encoding="UTF-8"?>
<svg xmlns="http://www.w3.org/2000/svg" xmlns:xlink="http://www.w3.org/1999/xlink" width="50" height="50" viewBox="0 0 50 50">
<path fill="none" stroke-width="2" stroke-linecap="round" stroke-linejoin="round" stroke="rgb(0%, 0%, 0%)" stroke-opacity="1" stroke-miterlimit="4" d="M 18.819375 4.685625 C 19.81875 5.6175 20.6175 6.744375 21.163125 7.996875 C 21.710625 9.2475 21.995625 10.599375 21.999375 11.964375 C 22.005 13.33125 21.729375 14.683125 21.19125 15.939375 C 20.653125 17.195625 19.86375 18.328125 18.87 19.265625 M 16.09125 7.6125 C 16.69125 8.17125 17.169375 8.84625 17.4975 9.598125 C 17.825625 10.35 17.99625 11.16 18 11.979375 C 18.001875 12.79875 17.836875 13.610625 17.514375 14.364375 C 17.191875 15.11625 16.7175 15.796875 16.123125 16.359375 M 7.479375 15.406875 L 9.155625 17.480625 C 10.029375 18.560625 10.46625 19.100625 10.84875 19.160625 C 11.17875 19.21125 11.514375 19.093125 11.739375 18.845625 C 12 18.55875 12 17.863125 12 16.47375 L 12 7.52625 C 12 6.136875 12 5.44125 11.739375 5.15625 C 11.514375 4.906875 11.17875 4.78875 10.84875 4.839375 C 10.46625 4.899375 10.029375 5.439375 9.155625 6.519375 L 7.479375 8.593125 C 7.303125 8.810625 7.215 8.92125 7.10625 9 C 7.010625 9.069375 6.901875 9.12 6.785625 9.151875 C 6.65625 9.1875 6.515625 9.1875 6.23625 9.1875 L 4.813125 9.1875 C 4.055625 9.1875 3.67875 9.1875 3.373125 9.28875 C 2.77125 9.4875 2.29875 9.958125 2.101875 10.56 C 2.000625 10.865625 2.000625 11.244375 2.000625 12 C 2.000625 12.755625 2.000625 13.134375 2.101875 13.44 C 2.29875 14.041875 2.77125 14.5125 3.373125 14.71125 C 3.67875 14.8125 4.055625 14.8125 4.813125 14.8125 L 6.23625 14.8125 C 6.515625 14.8125 6.65625 14.8125 6.785625 14.848125 C 6.901875 14.88 7.010625 14.930625 7.10625 15 C 7.215 15.07875 7.303125 15.189375 7.479375 15.406875 Z M 7.479375 15.406875 " transform="matrix(2.083333, 0, 0, 2.083333, 0, 0)"/>
</svg>
