<?xml version="1.0" encoding="UTF-8"?>
<svg xmlns="http://www.w3.org/2000/svg" xmlns:xlink="http://www.w3.org/1999/xlink" width="50" height="50" viewBox="0 0 50 50">
<path fill="none" stroke-width="2" stroke-linecap="round" stroke-linejoin="miter" stroke="rgb(0%, 0%, 0%)" stroke-opacity="1" stroke-miterlimit="4" d="M 18 9 C 19.21125 10.816875 19.21125 13.183125 18 15 " transform="matrix(2.083333, 0, 0, 2.083333, 0, 0)"/>
<path fill="none" stroke-width="2" stroke-linecap="butt" stroke-linejoin="miter" stroke="rgb(0%, 0%, 0%)" stroke-opacity="1" stroke-miterlimit="4" d="M 8.416875 8.653125 L 11.540625 6.050625 C 12.5175 5.236875 14.000625 5.930625 14.000625 7.201875 L 14.000625 16.798125 C 14.000625 18.069375 12.5175 18.763125 11.540625 17.949375 L 8.416875 15.346875 C 8.146875 15.12375 7.8075 15 7.456875 15 L 5.499375 15 C 4.6725 15 3.999375 14.32875 3.999375 13.5 L 3.999375 10.5 C 3.999375 9.67125 4.6725 9 5.499375 9 L 7.456875 9 C 7.8075 9 8.146875 8.87625 8.416875 8.653125 Z M 8.416875 8.653125 " transform="matrix(2.083333, 0, 0, 2.083333, 0, 0)"/>
</svg>
